<svg width="260" height="46" viewBox="0 0 260 46" fill="none" xmlns="http://www.w3.org/2000/svg">
<path d="M8 1H252C255.866 1 259 4.13401 259 8V38C259 41.866 255.866 45 252 45H8C4.13401 45 1 41.866 1 38V8C1 4.13401 4.13401 1 8 1Z" fill="#00FFF2" stroke="#007384" stroke-width="2"/>
<path d="M46.7121 14.44V31H42.2001V14.44H46.7121ZM51.8481 14.44V17.464H46.5201V14.44H51.8481ZM56.0961 14.44V31H51.5841V14.44H56.0961ZM64.8568 18.736C66.4248 18.736 67.6808 18.944 68.6248 19.36C69.5688 19.76 70.2488 20.424 70.6648 21.352C71.0808 22.264 71.2888 23.496 71.2888 25.048C71.2888 26.584 71.0808 27.808 70.6648 28.72C70.2488 29.616 69.5688 30.272 68.6248 30.688C67.6808 31.088 66.4248 31.288 64.8568 31.288C63.3048 31.288 62.0568 31.088 61.1128 30.688C60.1688 30.272 59.4808 29.616 59.0488 28.72C58.6328 27.808 58.4248 26.584 58.4248 25.048C58.4248 23.496 58.6328 22.264 59.0488 21.352C59.4808 20.424 60.1688 19.76 61.1128 19.36C62.0568 18.944 63.3048 18.736 64.8568 18.736ZM64.8568 21.784C64.3768 21.784 64.0008 21.872 63.7288 22.048C63.4568 22.224 63.2648 22.544 63.1528 23.008C63.0408 23.472 62.9848 24.152 62.9848 25.048C62.9848 25.928 63.0408 26.6 63.1528 27.064C63.2648 27.528 63.4568 27.848 63.7288 28.024C64.0008 28.184 64.3768 28.264 64.8568 28.264C65.3528 28.264 65.7368 28.184 66.0088 28.024C66.2808 27.848 66.4648 27.528 66.5608 27.064C66.6728 26.6 66.7288 25.928 66.7288 25.048C66.7288 24.152 66.6728 23.472 66.5608 23.008C66.4648 22.544 66.2808 22.224 66.0088 22.048C65.7368 21.872 65.3528 21.784 64.8568 21.784ZM79.5583 18.928C80.9023 18.928 81.9583 19.024 82.7263 19.216C83.5103 19.392 84.0703 19.712 84.4063 20.176C84.7583 20.624 84.9343 21.264 84.9343 22.096C84.9343 22.944 84.7343 23.592 84.3343 24.04C83.9343 24.472 83.2623 24.728 82.3183 24.808V24.904C83.4543 24.984 84.2463 25.296 84.6943 25.84C85.1583 26.368 85.3903 27.104 85.3903 28.048C85.3903 28.864 85.2063 29.504 84.8383 29.968C84.4863 30.432 83.9343 30.76 83.1823 30.952C82.4303 31.128 81.4543 31.216 80.2543 31.216C79.2303 31.216 78.3263 31.208 77.5423 31.192C76.7583 31.192 76.0303 31.176 75.3583 31.144C74.7023 31.128 74.0303 31.104 73.3423 31.072L73.6783 28.36C74.0463 28.376 74.7503 28.392 75.7903 28.408C76.8463 28.408 78.0863 28.408 79.5103 28.408C79.9103 28.408 80.2223 28.376 80.4463 28.312C80.6703 28.248 80.8303 28.128 80.9263 27.952C81.0223 27.76 81.0703 27.496 81.0703 27.16C81.0703 26.68 80.9503 26.36 80.7103 26.2C80.4863 26.04 80.0703 25.96 79.4623 25.96H73.6543V23.752H79.4623C79.8303 23.752 80.1183 23.728 80.3263 23.68C80.5343 23.616 80.6783 23.504 80.7583 23.344C80.8543 23.184 80.9023 22.968 80.9023 22.696C80.9023 22.424 80.8543 22.216 80.7583 22.072C80.6623 21.928 80.5023 21.824 80.2783 21.76C80.0543 21.696 79.7423 21.664 79.3423 21.664C78.4783 21.664 77.7183 21.664 77.0623 21.664C76.4063 21.648 75.8063 21.648 75.2623 21.664C74.7183 21.664 74.1903 21.68 73.6783 21.712L73.3423 19.072C73.9663 19.024 74.5743 18.992 75.1663 18.976C75.7743 18.96 76.4303 18.952 77.1343 18.952C77.8383 18.936 78.6463 18.928 79.5583 18.928ZM77.4463 19.072V31.072H73.3423V19.072H77.4463ZM93.3339 18.736C95.4779 18.736 97.0059 19.088 97.9179 19.792C98.8299 20.496 99.2939 21.536 99.3099 22.912C99.3259 24.016 99.0139 24.824 98.3739 25.336C97.7499 25.848 96.6539 26.104 95.0859 26.104H88.5339V23.92H93.8619C94.3899 23.92 94.7259 23.84 94.8699 23.68C95.0299 23.52 95.1099 23.232 95.1099 22.816C95.1099 22.352 94.9819 22.04 94.7259 21.88C94.4859 21.72 94.0699 21.64 93.4779 21.64C92.9179 21.624 92.4859 21.688 92.1819 21.832C91.8939 21.976 91.6939 22.264 91.5819 22.696C91.4699 23.128 91.4139 23.776 91.4139 24.64C91.4139 25.504 91.4779 26.168 91.6059 26.632C91.7499 27.096 91.9979 27.424 92.3499 27.616C92.7179 27.808 93.2299 27.904 93.8859 27.904C94.4139 27.904 95.0939 27.888 95.9259 27.856C96.7739 27.808 97.6619 27.736 98.5899 27.64L98.9739 30.28C98.4619 30.536 97.8939 30.736 97.2699 30.88C96.6619 31.024 96.0299 31.128 95.3739 31.192C94.7179 31.256 94.0619 31.288 93.4059 31.288C91.8219 31.288 90.5419 31.064 89.5659 30.616C88.6059 30.168 87.9099 29.488 87.4779 28.576C87.0619 27.648 86.8539 26.488 86.8539 25.096C86.8539 23.528 87.0699 22.28 87.5019 21.352C87.9339 20.424 88.6219 19.76 89.5659 19.36C90.5259 18.944 91.7819 18.736 93.3339 18.736ZM112.922 19.072V21.952H107.834C107.482 21.952 107.218 22.032 107.042 22.192C106.866 22.352 106.754 22.6 106.706 22.936C106.642 23.56 106.57 24.192 106.49 24.832C106.41 25.456 106.322 26.048 106.226 26.608C106.146 27.152 106.066 27.616 105.986 28C105.826 28.976 105.474 29.72 104.93 30.232C104.386 30.728 103.73 31.032 102.962 31.144C102.194 31.272 101.378 31.264 100.514 31.12L100.082 27.928C100.418 27.864 100.722 27.808 100.994 27.76C101.266 27.712 101.49 27.624 101.666 27.496C101.858 27.368 101.994 27.144 102.074 26.824C102.154 26.6 102.218 26.336 102.266 26.032C102.33 25.728 102.386 25.376 102.434 24.976C102.498 24.56 102.546 24.12 102.578 23.656C102.626 23.176 102.674 22.656 102.722 22.096C102.818 21.104 103.122 20.352 103.634 19.84C104.162 19.328 104.938 19.072 105.962 19.072H112.922ZM113.234 19.072V31H108.89V19.072H113.234ZM128.148 19.072V31L124.26 31.048V25.648C124.26 25.296 124.276 24.96 124.308 24.64C124.34 24.304 124.38 23.936 124.428 23.536H124.332C124.22 23.872 124.068 24.224 123.876 24.592C123.7 24.96 123.524 25.272 123.348 25.528L119.628 31H115.788V19.072H119.676V24.712C119.676 25.016 119.66 25.312 119.628 25.6C119.596 25.888 119.556 26.208 119.508 26.56H119.604C119.716 26.224 119.852 25.92 120.012 25.648C120.172 25.36 120.34 25.08 120.516 24.808L124.332 19.072H128.148ZM137.941 19.072V31H133.597V19.072H137.941ZM141.733 19.072V22.336H129.781V19.072H141.733ZM149.279 18.736C151.423 18.736 152.951 19.088 153.863 19.792C154.775 20.496 155.239 21.536 155.255 22.912C155.271 24.016 154.959 24.824 154.319 25.336C153.695 25.848 152.599 26.104 151.031 26.104H144.479V23.92H149.807C150.335 23.92 150.671 23.84 150.815 23.68C150.975 23.52 151.055 23.232 151.055 22.816C151.055 22.352 150.927 22.04 150.671 21.88C150.431 21.72 150.015 21.64 149.423 21.64C148.863 21.624 148.431 21.688 148.127 21.832C147.839 21.976 147.639 22.264 147.527 22.696C147.415 23.128 147.359 23.776 147.359 24.64C147.359 25.504 147.423 26.168 147.551 26.632C147.695 27.096 147.943 27.424 148.295 27.616C148.663 27.808 149.175 27.904 149.831 27.904C150.359 27.904 151.039 27.888 151.871 27.856C152.719 27.808 153.607 27.736 154.535 27.64L154.919 30.28C154.407 30.536 153.839 30.736 153.215 30.88C152.607 31.024 151.975 31.128 151.319 31.192C150.663 31.256 150.007 31.288 149.351 31.288C147.767 31.288 146.487 31.064 145.511 30.616C144.551 30.168 143.855 29.488 143.423 28.576C143.007 27.648 142.799 26.488 142.799 25.096C142.799 23.528 143.015 22.28 143.447 21.352C143.879 20.424 144.567 19.76 145.511 19.36C146.471 18.944 147.727 18.736 149.279 18.736ZM168.867 19.072V21.952H163.779C163.427 21.952 163.163 22.032 162.987 22.192C162.811 22.352 162.699 22.6 162.651 22.936C162.587 23.56 162.515 24.192 162.435 24.832C162.355 25.456 162.267 26.048 162.171 26.608C162.091 27.152 162.011 27.616 161.931 28C161.771 28.976 161.419 29.72 160.875 30.232C160.331 30.728 159.675 31.032 158.907 31.144C158.139 31.272 157.323 31.264 156.459 31.12L156.027 27.928C156.363 27.864 156.667 27.808 156.939 27.76C157.211 27.712 157.435 27.624 157.611 27.496C157.803 27.368 157.939 27.144 158.019 26.824C158.099 26.6 158.163 26.336 158.211 26.032C158.275 25.728 158.331 25.376 158.379 24.976C158.443 24.56 158.491 24.12 158.523 23.656C158.571 23.176 158.619 22.656 158.667 22.096C158.763 21.104 159.067 20.352 159.579 19.84C160.107 19.328 160.883 19.072 161.907 19.072H168.867ZM169.179 19.072V31H164.835V19.072H169.179ZM177.277 23.008C178.781 23.008 179.957 23.128 180.805 23.368C181.669 23.608 182.277 24.024 182.629 24.616C182.997 25.192 183.181 26.008 183.181 27.064C183.181 28.12 182.997 28.944 182.629 29.536C182.277 30.128 181.717 30.544 180.949 30.784C180.197 31.024 179.221 31.144 178.021 31.144C177.093 31.144 176.277 31.136 175.573 31.12C174.885 31.12 174.245 31.104 173.653 31.072C173.077 31.056 172.485 31.032 171.877 31L172.165 28.216C172.485 28.232 173.109 28.248 174.037 28.264C174.965 28.28 176.045 28.288 177.277 28.288C177.693 28.288 178.005 28.256 178.213 28.192C178.437 28.128 178.589 27.992 178.669 27.784C178.765 27.576 178.813 27.28 178.813 26.896C178.813 26.512 178.773 26.224 178.693 26.032C178.613 25.824 178.461 25.688 178.237 25.624C178.029 25.544 177.709 25.504 177.277 25.504H172.141V23.008H177.277ZM175.933 19.072V31H171.733V19.072H175.933ZM211.253 14.44V31H206.837V14.44H211.253ZM194.741 14.44V31H190.349V14.44H194.741ZM207.869 27.976V31H194.525V27.976H207.869ZM202.997 14.44V31H198.605V14.44H202.997ZM218.789 14.44V31H214.325V14.44H218.789Z" fill="#007384"/>
</svg>
