<svg width="260" height="46" viewBox="0 0 260 46" fill="none" xmlns="http://www.w3.org/2000/svg">
<path d="M8 1H252C255.866 1 259 4.13401 259 8V38C259 41.866 255.866 45 252 45H8C4.13401 45 1 41.866 1 38V8L1.00879 7.63965C1.19633 3.94111 4.25486 1 8 1Z" fill="#FB2CFF" stroke="#790073" stroke-width="2"/>
<path d="M20.9795 16.2V30H17.2195V16.2H20.9795ZM25.3195 21.32V24.02H20.8195V21.32H25.3195ZM28.8595 16.2V30H25.0995V16.2H28.8595ZM36.7187 19.78C37.612 19.78 38.3653 19.9 38.9787 20.14C39.592 20.38 40.0587 20.78 40.3787 21.34C40.6987 21.9 40.8587 22.6733 40.8587 23.66V30H37.9587L37.4587 27.86L37.2187 27.5V23.64C37.2053 23.2267 37.0987 22.9333 36.8987 22.76C36.712 22.5733 36.3653 22.48 35.8587 22.48C35.3387 22.48 34.6987 22.4933 33.9387 22.52C33.1787 22.5333 32.3853 22.5667 31.5587 22.62L31.2387 20.28C31.732 20.1867 32.312 20.1067 32.9787 20.04C33.6453 19.96 34.3053 19.9 34.9587 19.86C35.6253 19.8067 36.212 19.78 36.7187 19.78ZM39.4187 23.9L39.3987 25.74H35.1387C34.8453 25.7533 34.6253 25.8333 34.4787 25.98C34.332 26.1133 34.2587 26.3 34.2587 26.54V26.92C34.2587 27.1733 34.3387 27.3733 34.4987 27.52C34.672 27.6533 34.9253 27.72 35.2587 27.72C35.592 27.72 35.9453 27.6467 36.3187 27.5C36.692 27.3533 37.0587 27.1533 37.4187 26.9C37.7787 26.6467 38.092 26.3733 38.3587 26.08V27.36C38.252 27.5733 38.0853 27.84 37.8587 28.16C37.6453 28.48 37.3653 28.8067 37.0187 29.14C36.672 29.46 36.252 29.7267 35.7587 29.94C35.2653 30.1533 34.692 30.26 34.0387 30.26C33.4387 30.26 32.8853 30.1533 32.3787 29.94C31.872 29.7267 31.4653 29.4133 31.1587 29C30.8653 28.5867 30.7187 28.0667 30.7187 27.44V26.44C30.7187 25.64 30.9987 25.02 31.5587 24.58C32.132 24.1267 32.9053 23.9 33.8787 23.9H39.4187ZM53.1784 20.06V30L49.9384 30.04V25.54C49.9384 25.2467 49.9517 24.9667 49.9784 24.7C50.005 24.42 50.0384 24.1133 50.0784 23.78H49.9984C49.905 24.06 49.7784 24.3533 49.6184 24.66C49.4717 24.9667 49.325 25.2267 49.1784 25.44L46.0784 30H42.8784V20.06H46.1184V24.76C46.1184 25.0133 46.105 25.26 46.0784 25.5C46.0517 25.74 46.0184 26.0067 45.9784 26.3H46.0584C46.1517 26.02 46.265 25.7667 46.3984 25.54C46.5317 25.3 46.6717 25.0667 46.8184 24.84L49.9984 20.06H53.1784ZM49.2184 15.64H51.4784C51.5584 16.2 51.4717 16.7333 51.2184 17.24C50.965 17.7333 50.565 18.14 50.0184 18.46C49.485 18.78 48.825 18.94 48.0384 18.94C47.265 18.94 46.605 18.78 46.0584 18.46C45.5117 18.14 45.105 17.7333 44.8384 17.24C44.585 16.7333 44.4984 16.2 44.5784 15.64H46.8384C46.785 16.24 46.865 16.66 47.0784 16.9C47.2917 17.1267 47.6117 17.24 48.0384 17.24C48.465 17.24 48.7784 17.1267 48.9784 16.9C49.1917 16.66 49.2717 16.24 49.2184 15.64ZM65.2798 20.06C65.0264 20.8867 64.8131 21.5733 64.6398 22.12C64.4798 22.6667 64.3264 23.1067 64.1798 23.44C64.0331 23.76 63.8664 24.0067 63.6798 24.18C63.4931 24.34 63.2531 24.4667 62.9598 24.56C62.6664 24.64 62.2931 24.7133 61.8398 24.78V24.88C62.3064 24.9467 62.6931 25.02 62.9998 25.1C63.3064 25.18 63.5664 25.3067 63.7798 25.48C63.9931 25.6533 64.1864 25.9133 64.3598 26.26C64.5331 26.6067 64.7131 27.0867 64.8998 27.7C65.0998 28.3 65.3398 29.0667 65.6198 30H61.8398C61.6131 29.2 61.4198 28.5533 61.2598 28.06C61.1131 27.5533 60.9798 27.16 60.8598 26.88C60.7398 26.6 60.6131 26.4067 60.4798 26.3C60.3464 26.18 60.1864 26.1067 59.9998 26.08C59.8264 26.0533 59.5998 26.04 59.3198 26.04L59.2598 23.68C59.6198 23.68 59.9064 23.6467 60.1198 23.58C60.3331 23.5 60.5131 23.3467 60.6598 23.12C60.8064 22.88 60.9464 22.52 61.0798 22.04C61.2264 21.56 61.4064 20.9 61.6198 20.06H65.2798ZM58.9398 20.06V22.4C58.9398 22.7867 58.8931 23.1933 58.7998 23.62C58.7198 24.0467 58.5931 24.44 58.4198 24.8C58.5664 25.12 58.6864 25.4733 58.7798 25.86C58.8864 26.2333 58.9398 26.5667 58.9398 26.86V30H55.3198V20.06H58.9398ZM60.1198 23.68V26.04H58.0798V23.68H60.1198ZM73.9209 19.82C75.2009 19.82 76.1075 20.28 76.6409 21.2C77.1875 22.12 77.4609 23.4333 77.4609 25.14C77.4609 26.4867 77.3209 27.5333 77.0409 28.28C76.7609 29.0133 76.3409 29.5333 75.7809 29.84C75.2342 30.1333 74.5475 30.28 73.7209 30.28C72.9875 30.28 72.2942 30.1733 71.6409 29.96C70.9875 29.7333 70.4409 29.3667 70.0009 28.86L70.2409 27.36C70.5875 27.4667 70.9075 27.5733 71.2009 27.68C71.5075 27.7733 71.8809 27.82 72.3209 27.82C72.6675 27.82 72.9409 27.76 73.1409 27.64C73.3409 27.5067 73.4875 27.2533 73.5809 26.88C73.6742 26.4933 73.7209 25.92 73.7209 25.16C73.7209 24.4 73.6742 23.8267 73.5809 23.44C73.5009 23.0533 73.3609 22.8 73.1609 22.68C72.9742 22.56 72.7209 22.5 72.4009 22.5C72.0142 22.5 71.6809 22.56 71.4009 22.68C71.1342 22.7867 70.8409 22.94 70.5209 23.14L70.0409 21.66C70.2542 21.3133 70.5542 21 70.9409 20.72C71.3409 20.44 71.8009 20.22 72.3209 20.06C72.8409 19.9 73.3742 19.82 73.9209 19.82ZM69.8609 20.06L70.2209 21.74L70.5809 22.04V28.58L70.4809 28.82C70.5209 29.2333 70.5475 29.6733 70.5609 30.14C70.5875 30.62 70.5942 31.08 70.5809 31.52V33.7H66.9609V20.06H69.8609ZM84.746 19.78C85.6393 19.78 86.3927 19.9 87.006 20.14C87.6193 20.38 88.086 20.78 88.406 21.34C88.726 21.9 88.886 22.6733 88.886 23.66V30H85.986L85.486 27.86L85.246 27.5V23.64C85.2327 23.2267 85.126 22.9333 84.926 22.76C84.7393 22.5733 84.3927 22.48 83.886 22.48C83.366 22.48 82.726 22.4933 81.966 22.52C81.206 22.5333 80.4127 22.5667 79.586 22.62L79.266 20.28C79.7593 20.1867 80.3393 20.1067 81.006 20.04C81.6727 19.96 82.3327 19.9 82.986 19.86C83.6527 19.8067 84.2393 19.78 84.746 19.78ZM87.446 23.9L87.426 25.74H83.166C82.8727 25.7533 82.6527 25.8333 82.506 25.98C82.3593 26.1133 82.286 26.3 82.286 26.54V26.92C82.286 27.1733 82.366 27.3733 82.526 27.52C82.6993 27.6533 82.9527 27.72 83.286 27.72C83.6193 27.72 83.9727 27.6467 84.346 27.5C84.7193 27.3533 85.086 27.1533 85.446 26.9C85.806 26.6467 86.1193 26.3733 86.386 26.08V27.36C86.2793 27.5733 86.1127 27.84 85.886 28.16C85.6727 28.48 85.3927 28.8067 85.046 29.14C84.6993 29.46 84.2793 29.7267 83.786 29.94C83.2927 30.1533 82.7193 30.26 82.066 30.26C81.466 30.26 80.9127 30.1533 80.406 29.94C79.8993 29.7267 79.4927 29.4133 79.186 29C78.8927 28.5867 78.746 28.0667 78.746 27.44V26.44C78.746 25.64 79.026 25.02 79.586 24.58C80.1593 24.1267 80.9327 23.9 81.906 23.9H87.446ZM94.4257 20.06V30H90.9257V20.06H94.4257ZM107.386 27.58V30H94.2857L94.2657 27.58H107.386ZM99.9857 20.06V30H96.7857V20.06H99.9857ZM105.846 20.06V30H102.366V20.06H105.846ZM107.386 29.9V32.76H104.966L104.706 29.9H107.386ZM119.096 20.06V30L115.856 30.04V25.54C115.856 25.2467 115.87 24.9667 115.896 24.7C115.923 24.42 115.956 24.1133 115.996 23.78H115.916C115.823 24.06 115.696 24.3533 115.536 24.66C115.39 24.9667 115.243 25.2267 115.096 25.44L111.996 30H108.796V20.06H112.036V24.76C112.036 25.0133 112.023 25.26 111.996 25.5C111.97 25.74 111.936 26.0067 111.896 26.3H111.976C112.07 26.02 112.183 25.7667 112.316 25.54C112.45 25.3 112.59 25.0667 112.736 24.84L115.916 20.06H119.096ZM131.538 20.06V30L128.298 30.04V25.54C128.298 25.2467 128.311 24.9667 128.338 24.7C128.364 24.42 128.398 24.1133 128.438 23.78H128.358C128.264 24.06 128.138 24.3533 127.978 24.66C127.831 24.9667 127.684 25.2267 127.538 25.44L124.438 30H121.238V20.06H124.478V24.76C124.478 25.0133 124.464 25.26 124.438 25.5C124.411 25.74 124.378 26.0067 124.338 26.3H124.418C124.511 26.02 124.624 25.7667 124.758 25.54C124.891 25.3 125.031 25.0667 125.178 24.84L128.358 20.06H131.538ZM127.578 15.64H129.838C129.918 16.2 129.831 16.7333 129.578 17.24C129.324 17.7333 128.924 18.14 128.378 18.46C127.844 18.78 127.184 18.94 126.398 18.94C125.624 18.94 124.964 18.78 124.418 18.46C123.871 18.14 123.464 17.7333 123.198 17.24C122.944 16.7333 122.858 16.2 122.938 15.64H125.198C125.144 16.24 125.224 16.66 125.438 16.9C125.651 17.1267 125.971 17.24 126.398 17.24C126.824 17.24 127.138 17.1267 127.338 16.9C127.551 16.66 127.631 16.24 127.578 15.64ZM143.117 19.94C144.237 19.94 145.117 20.02 145.757 20.18C146.41 20.3267 146.877 20.5933 147.157 20.98C147.45 21.3533 147.597 21.8867 147.597 22.58C147.597 23.2867 147.43 23.8267 147.097 24.2C146.764 24.56 146.204 24.7733 145.417 24.84V24.92C146.364 24.9867 147.024 25.2467 147.397 25.7C147.784 26.14 147.977 26.7533 147.977 27.54C147.977 28.22 147.824 28.7533 147.517 29.14C147.224 29.5267 146.764 29.8 146.137 29.96C145.51 30.1067 144.697 30.18 143.697 30.18C142.844 30.18 142.09 30.1733 141.437 30.16C140.784 30.16 140.177 30.1467 139.617 30.12C139.07 30.1067 138.51 30.0867 137.937 30.06L138.217 27.8C138.524 27.8133 139.11 27.8267 139.977 27.84C140.857 27.84 141.89 27.84 143.077 27.84C143.41 27.84 143.67 27.8133 143.857 27.76C144.044 27.7067 144.177 27.6067 144.257 27.46C144.337 27.3 144.377 27.08 144.377 26.8C144.377 26.4 144.277 26.1333 144.077 26C143.89 25.8667 143.544 25.8 143.037 25.8H138.197V23.96H143.037C143.344 23.96 143.584 23.94 143.757 23.9C143.93 23.8467 144.05 23.7533 144.117 23.62C144.197 23.4867 144.237 23.3067 144.237 23.08C144.237 22.8533 144.197 22.68 144.117 22.56C144.037 22.44 143.904 22.3533 143.717 22.3C143.53 22.2467 143.27 22.22 142.937 22.22C142.217 22.22 141.584 22.22 141.037 22.22C140.49 22.2067 139.99 22.2067 139.537 22.22C139.084 22.22 138.644 22.2333 138.217 22.26L137.937 20.06C138.457 20.02 138.964 19.9933 139.457 19.98C139.964 19.9667 140.51 19.96 141.097 19.96C141.684 19.9467 142.357 19.94 143.117 19.94ZM141.357 20.06V30.06H137.937V20.06H141.357ZM155.137 19.78C156.03 19.78 156.783 19.9 157.397 20.14C158.01 20.38 158.477 20.78 158.797 21.34C159.117 21.9 159.277 22.6733 159.277 23.66V30H156.377L155.877 27.86L155.637 27.5V23.64C155.623 23.2267 155.517 22.9333 155.317 22.76C155.13 22.5733 154.783 22.48 154.277 22.48C153.757 22.48 153.117 22.4933 152.357 22.52C151.597 22.5333 150.803 22.5667 149.977 22.62L149.657 20.28C150.15 20.1867 150.73 20.1067 151.397 20.04C152.063 19.96 152.723 19.9 153.377 19.86C154.043 19.8067 154.63 19.78 155.137 19.78ZM157.837 23.9L157.817 25.74H153.557C153.263 25.7533 153.043 25.8333 152.897 25.98C152.75 26.1133 152.677 26.3 152.677 26.54V26.92C152.677 27.1733 152.757 27.3733 152.917 27.52C153.09 27.6533 153.343 27.72 153.677 27.72C154.01 27.72 154.363 27.6467 154.737 27.5C155.11 27.3533 155.477 27.1533 155.837 26.9C156.197 26.6467 156.51 26.3733 156.777 26.08V27.36C156.67 27.5733 156.503 27.84 156.277 28.16C156.063 28.48 155.783 28.8067 155.437 29.14C155.09 29.46 154.67 29.7267 154.177 29.94C153.683 30.1533 153.11 30.26 152.457 30.26C151.857 30.26 151.303 30.1533 150.797 29.94C150.29 29.7267 149.883 29.4133 149.577 29C149.283 28.5867 149.137 28.0667 149.137 27.44V26.44C149.137 25.64 149.417 25.02 149.977 24.58C150.55 24.1267 151.323 23.9 152.297 23.9H157.837ZM171.596 20.06V30L168.356 30.04V25.54C168.356 25.2467 168.37 24.9667 168.396 24.7C168.423 24.42 168.456 24.1133 168.496 23.78H168.416C168.323 24.06 168.196 24.3533 168.036 24.66C167.89 24.9667 167.743 25.2267 167.596 25.44L164.496 30H161.296V20.06H164.536V24.76C164.536 25.0133 164.523 25.26 164.496 25.5C164.47 25.74 164.436 26.0067 164.396 26.3H164.476C164.57 26.02 164.683 25.7667 164.816 25.54C164.95 25.3 165.09 25.0667 165.236 24.84L168.416 20.06H171.596ZM167.636 15.64H169.896C169.976 16.2 169.89 16.7333 169.636 17.24C169.383 17.7333 168.983 18.14 168.436 18.46C167.903 18.78 167.243 18.94 166.456 18.94C165.683 18.94 165.023 18.78 164.476 18.46C163.93 18.14 163.523 17.7333 163.256 17.24C163.003 16.7333 162.916 16.2 162.996 15.64H165.256C165.203 16.24 165.283 16.66 165.496 16.9C165.71 17.1267 166.03 17.24 166.456 17.24C166.883 17.24 167.196 17.1267 167.396 16.9C167.61 16.66 167.69 16.24 167.636 15.64ZM183.038 15.2L183.558 17.96C183.091 18.2133 182.638 18.3867 182.198 18.48C181.758 18.5733 181.331 18.6267 180.918 18.64C180.504 18.6533 180.091 18.6733 179.678 18.7C179.278 18.7133 178.871 18.78 178.458 18.9C178.098 18.9933 177.798 19.1133 177.558 19.26C177.318 19.3933 177.124 19.5467 176.978 19.72C176.831 19.8933 176.711 20.08 176.618 20.28C176.471 20.5067 176.371 20.74 176.318 20.98C176.278 21.22 176.231 21.48 176.178 21.76H176.258C176.458 21.5467 176.664 21.36 176.878 21.2C177.104 21.0267 177.351 20.88 177.618 20.76C177.898 20.64 178.211 20.5533 178.558 20.5C178.918 20.4333 179.311 20.4 179.738 20.4C180.831 20.4 181.691 20.56 182.318 20.88C182.958 21.2 183.418 21.7067 183.698 22.4C183.978 23.08 184.118 23.98 184.118 25.1C184.118 26.2467 183.958 27.2 183.638 27.96C183.318 28.72 182.784 29.2933 182.038 29.68C181.291 30.0533 180.278 30.24 178.998 30.24C177.931 30.24 177.058 30.1333 176.378 29.92C175.711 29.7067 175.184 29.4067 174.798 29.02C174.411 28.6333 174.124 28.1667 173.938 27.62C173.764 27.0733 173.651 26.48 173.598 25.84C173.558 25.1867 173.538 24.4867 173.538 23.74C173.538 22.7933 173.584 21.9267 173.678 21.14C173.784 20.34 173.964 19.6267 174.218 19C174.471 18.36 174.838 17.8133 175.318 17.36C175.811 16.9067 176.444 16.5467 177.218 16.28C177.724 16.1067 178.218 15.9933 178.698 15.94C179.191 15.8733 179.678 15.8267 180.158 15.8C180.638 15.7733 181.118 15.72 181.598 15.64C182.078 15.56 182.558 15.4133 183.038 15.2ZM178.838 22.58C178.398 22.58 178.064 22.6533 177.838 22.8C177.611 22.9467 177.458 23.2 177.378 23.56C177.298 23.92 177.258 24.4267 177.258 25.08C177.258 25.8 177.304 26.3533 177.398 26.74C177.491 27.1133 177.644 27.3733 177.858 27.52C178.084 27.6533 178.398 27.72 178.798 27.72C179.184 27.72 179.491 27.6533 179.718 27.52C179.944 27.3733 180.098 27.1133 180.178 26.74C180.271 26.3533 180.318 25.8 180.318 25.08C180.318 24.3867 180.271 23.8667 180.178 23.52C180.098 23.16 179.951 22.9133 179.738 22.78C179.538 22.6467 179.238 22.58 178.838 22.58ZM195.827 20.06C195.573 20.8867 195.36 21.5733 195.187 22.12C195.027 22.6667 194.873 23.1067 194.727 23.44C194.58 23.76 194.413 24.0067 194.227 24.18C194.04 24.34 193.8 24.4667 193.507 24.56C193.213 24.64 192.84 24.7133 192.387 24.78V24.88C192.853 24.9467 193.24 25.02 193.547 25.1C193.853 25.18 194.113 25.3067 194.327 25.48C194.54 25.6533 194.733 25.9133 194.907 26.26C195.08 26.6067 195.26 27.0867 195.447 27.7C195.647 28.3 195.887 29.0667 196.167 30H192.387C192.16 29.2 191.967 28.5533 191.807 28.06C191.66 27.5533 191.527 27.16 191.407 26.88C191.287 26.6 191.16 26.4067 191.027 26.3C190.893 26.18 190.733 26.1067 190.547 26.08C190.373 26.0533 190.147 26.04 189.867 26.04L189.807 23.68C190.167 23.68 190.453 23.6467 190.667 23.58C190.88 23.5 191.06 23.3467 191.207 23.12C191.353 22.88 191.493 22.52 191.627 22.04C191.773 21.56 191.953 20.9 192.167 20.06H195.827ZM189.487 20.06V22.4C189.487 22.7867 189.44 23.1933 189.347 23.62C189.267 24.0467 189.14 24.44 188.967 24.8C189.113 25.12 189.233 25.4733 189.327 25.86C189.433 26.2333 189.487 26.5667 189.487 26.86V30H185.867V20.06H189.487ZM190.667 23.68V26.04H188.627V23.68H190.667ZM202.331 19.78C203.637 19.78 204.684 19.9533 205.471 20.3C206.257 20.6333 206.824 21.1867 207.171 21.96C207.517 22.72 207.691 23.7467 207.691 25.04C207.691 26.32 207.517 27.34 207.171 28.1C206.824 28.8467 206.257 29.3933 205.471 29.74C204.684 30.0733 203.637 30.24 202.331 30.24C201.037 30.24 199.997 30.0733 199.211 29.74C198.424 29.3933 197.851 28.8467 197.491 28.1C197.144 27.34 196.971 26.32 196.971 25.04C196.971 23.7467 197.144 22.72 197.491 21.96C197.851 21.1867 198.424 20.6333 199.211 20.3C199.997 19.9533 201.037 19.78 202.331 19.78ZM202.331 22.32C201.931 22.32 201.617 22.3933 201.391 22.54C201.164 22.6867 201.004 22.9533 200.911 23.34C200.817 23.7267 200.771 24.2933 200.771 25.04C200.771 25.7733 200.817 26.3333 200.911 26.72C201.004 27.1067 201.164 27.3733 201.391 27.52C201.617 27.6533 201.931 27.72 202.331 27.72C202.744 27.72 203.064 27.6533 203.291 27.52C203.517 27.3733 203.671 27.1067 203.751 26.72C203.844 26.3333 203.891 25.7733 203.891 25.04C203.891 24.2933 203.844 23.7267 203.751 23.34C203.671 22.9533 203.517 22.6867 203.291 22.54C203.064 22.3933 202.744 22.32 202.331 22.32ZM218.967 20.06V22.34H214.887C214.367 22.34 214.067 22.6133 213.987 23.16C213.814 24.2667 213.614 25.2267 213.387 26.04C213.16 26.84 212.88 27.5533 212.547 28.18C212.214 28.8067 211.8 29.4133 211.307 30H208.547C209.014 29.1467 209.394 28.3 209.687 27.46C209.98 26.62 210.214 25.7867 210.387 24.96C210.574 24.1333 210.727 23.3 210.847 22.46C210.954 21.6733 211.234 21.08 211.687 20.68C212.14 20.2667 212.8 20.06 213.667 20.06H218.967ZM211.067 29.9L210.807 32.76H208.407V29.9H211.067ZM220.847 27.58V30H208.407V27.58H220.847ZM220.847 29.9V32.76H218.427L218.187 29.9H220.847ZM219.207 20.06V30H215.787V20.06H219.207ZM227.233 19.78C229.02 19.78 230.293 20.0733 231.053 20.66C231.813 21.2467 232.2 22.1133 232.213 23.26C232.227 24.18 231.967 24.8533 231.433 25.28C230.913 25.7067 230 25.92 228.693 25.92H223.233V24.1H227.673C228.113 24.1 228.393 24.0333 228.513 23.9C228.647 23.7667 228.713 23.5267 228.713 23.18C228.713 22.7933 228.607 22.5333 228.393 22.4C228.193 22.2667 227.847 22.2 227.353 22.2C226.887 22.1867 226.527 22.24 226.273 22.36C226.033 22.48 225.867 22.72 225.773 23.08C225.68 23.44 225.633 23.98 225.633 24.7C225.633 25.42 225.687 25.9733 225.793 26.36C225.913 26.7467 226.12 27.02 226.413 27.18C226.72 27.34 227.147 27.42 227.693 27.42C228.133 27.42 228.7 27.4067 229.393 27.38C230.1 27.34 230.84 27.28 231.613 27.2L231.933 29.4C231.507 29.6133 231.033 29.78 230.513 29.9C230.007 30.02 229.48 30.1067 228.933 30.16C228.387 30.2133 227.84 30.24 227.293 30.24C225.973 30.24 224.907 30.0533 224.093 29.68C223.293 29.3067 222.713 28.74 222.353 27.98C222.007 27.2067 221.833 26.24 221.833 25.08C221.833 23.7733 222.013 22.7333 222.373 21.96C222.733 21.1867 223.307 20.6333 224.093 20.3C224.893 19.9533 225.94 19.78 227.233 19.78ZM240.815 19.82C242.095 19.82 243.002 20.28 243.535 21.2C244.082 22.12 244.355 23.4333 244.355 25.14C244.355 26.4867 244.215 27.5333 243.935 28.28C243.655 29.0133 243.235 29.5333 242.675 29.84C242.129 30.1333 241.442 30.28 240.615 30.28C239.882 30.28 239.189 30.1733 238.535 29.96C237.882 29.7333 237.335 29.3667 236.895 28.86L237.135 27.36C237.482 27.4667 237.802 27.5733 238.095 27.68C238.402 27.7733 238.775 27.82 239.215 27.82C239.562 27.82 239.835 27.76 240.035 27.64C240.235 27.5067 240.382 27.2533 240.475 26.88C240.569 26.4933 240.615 25.92 240.615 25.16C240.615 24.4 240.569 23.8267 240.475 23.44C240.395 23.0533 240.255 22.8 240.055 22.68C239.869 22.56 239.615 22.5 239.295 22.5C238.909 22.5 238.575 22.56 238.295 22.68C238.029 22.7867 237.735 22.94 237.415 23.14L236.935 21.66C237.149 21.3133 237.449 21 237.835 20.72C238.235 20.44 238.695 20.22 239.215 20.06C239.735 19.9 240.269 19.82 240.815 19.82ZM236.755 20.06L237.115 21.74L237.475 22.04V28.58L237.375 28.82C237.415 29.2333 237.442 29.6733 237.455 30.14C237.482 30.62 237.489 31.08 237.475 31.52V33.7H233.855V20.06H236.755Z" fill="#790073"/>
</svg>
