<svg width="260" height="46" viewBox="0 0 260 46" fill="none" xmlns="http://www.w3.org/2000/svg">
<path d="M8 1H252C255.866 1 259 4.13401 259 8V38C259 41.866 255.866 45 252 45H8C4.13401 45 1 41.866 1 38V8C1 4.13401 4.13401 1 8 1Z" fill="#FFD900" stroke="#7A5300" stroke-width="2"/>
<path d="M41.3238 16.2C42.1771 16.2 42.6171 16.64 42.6438 17.52L43.1638 30H39.7438L39.3038 19.04H38.9838L37.2238 26.78C37.1038 27.5533 36.6238 27.94 35.7838 27.94H33.7038C32.8771 27.94 32.3838 27.5533 32.2238 26.78L30.4638 19.04H30.1438L29.7638 30H26.3638L26.8438 17.52C26.8838 16.64 27.3304 16.2 28.1838 16.2H31.5438C32.3438 16.2 32.8238 16.5933 32.9838 17.38L34.3238 23.52C34.3904 23.84 34.4438 24.1733 34.4838 24.52C34.5371 24.8533 34.5838 25.1933 34.6238 25.54H34.8438C34.8971 25.1933 34.9438 24.8533 34.9838 24.52C35.0238 24.1733 35.0771 23.8333 35.1438 23.5L36.4638 17.38C36.6104 16.5933 37.0904 16.2 37.9038 16.2H41.3238ZM50.7519 19.78C51.6452 19.78 52.3985 19.9 53.0119 20.14C53.6252 20.38 54.0919 20.78 54.4119 21.34C54.7319 21.9 54.8919 22.6733 54.8919 23.66V30H51.9919L51.4919 27.86L51.2519 27.5V23.64C51.2385 23.2267 51.1319 22.9333 50.9319 22.76C50.7452 22.5733 50.3985 22.48 49.8919 22.48C49.3719 22.48 48.7319 22.4933 47.9719 22.52C47.2119 22.5333 46.4185 22.5667 45.5919 22.62L45.2719 20.28C45.7652 20.1867 46.3452 20.1067 47.0119 20.04C47.6785 19.96 48.3385 19.9 48.9919 19.86C49.6585 19.8067 50.2452 19.78 50.7519 19.78ZM53.4519 23.9L53.4319 25.74H49.1719C48.8785 25.7533 48.6585 25.8333 48.5119 25.98C48.3652 26.1133 48.2919 26.3 48.2919 26.54V26.92C48.2919 27.1733 48.3719 27.3733 48.5319 27.52C48.7052 27.6533 48.9585 27.72 49.2919 27.72C49.6252 27.72 49.9785 27.6467 50.3519 27.5C50.7252 27.3533 51.0919 27.1533 51.4519 26.9C51.8119 26.6467 52.1252 26.3733 52.3919 26.08V27.36C52.2852 27.5733 52.1185 27.84 51.8919 28.16C51.6785 28.48 51.3985 28.8067 51.0519 29.14C50.7052 29.46 50.2852 29.7267 49.7919 29.94C49.2985 30.1533 48.7252 30.26 48.0719 30.26C47.4719 30.26 46.9185 30.1533 46.4119 29.94C45.9052 29.7267 45.4985 29.4133 45.1919 29C44.8985 28.5867 44.7519 28.0667 44.7519 27.44V26.44C44.7519 25.64 45.0319 25.02 45.5919 24.58C46.1652 24.1267 46.9385 23.9 47.9119 23.9H53.4519ZM67.2116 20.06V30L63.9716 30.04V25.54C63.9716 25.2467 63.9849 24.9667 64.0116 24.7C64.0382 24.42 64.0716 24.1133 64.1116 23.78H64.0316C63.9382 24.06 63.8116 24.3533 63.6516 24.66C63.5049 24.9667 63.3582 25.2267 63.2116 25.44L60.1116 30H56.9116V20.06H60.1516V24.76C60.1516 25.0133 60.1382 25.26 60.1116 25.5C60.0849 25.74 60.0516 26.0067 60.0116 26.3H60.0916C60.1849 26.02 60.2982 25.7667 60.4316 25.54C60.5649 25.3 60.7049 25.0667 60.8516 24.84L64.0316 20.06H67.2116ZM63.2516 15.64H65.5116C65.5916 16.2 65.5049 16.7333 65.2516 17.24C64.9982 17.7333 64.5982 18.14 64.0516 18.46C63.5182 18.78 62.8582 18.94 62.0716 18.94C61.2982 18.94 60.6382 18.78 60.0916 18.46C59.5449 18.14 59.1382 17.7333 58.8716 17.24C58.6182 16.7333 58.5316 16.2 58.6116 15.64H60.8716C60.8182 16.24 60.8982 16.66 61.1116 16.9C61.3249 17.1267 61.6449 17.24 62.0716 17.24C62.4982 17.24 62.8116 17.1267 63.0116 16.9C63.2249 16.66 63.3049 16.24 63.2516 15.64ZM74.133 19.78C74.5196 19.78 74.9463 19.8 75.413 19.84C75.8796 19.88 76.3463 19.9533 76.813 20.06C77.2796 20.1533 77.7063 20.2867 78.093 20.46L77.713 22.72C77.113 22.72 76.573 22.72 76.093 22.72C75.613 22.7067 75.1663 22.7 74.753 22.7C74.2596 22.7 73.8663 22.7667 73.573 22.9C73.2796 23.0333 73.0663 23.2667 72.933 23.6C72.813 23.92 72.753 24.3933 72.753 25.02C72.753 25.6333 72.813 26.1133 72.933 26.46C73.0663 26.7933 73.2796 27.0267 73.573 27.16C73.8663 27.28 74.2596 27.34 74.753 27.34C74.9796 27.34 75.2596 27.34 75.593 27.34C75.9396 27.3267 76.313 27.3133 76.713 27.3C77.113 27.2733 77.513 27.24 77.913 27.2L78.233 29.48C77.673 29.76 77.0263 29.9533 76.293 30.06C75.5596 30.18 74.833 30.24 74.113 30.24C72.8463 30.24 71.833 30.0733 71.073 29.74C70.313 29.3933 69.7663 28.84 69.433 28.08C69.113 27.3067 68.953 26.2867 68.953 25.02C68.953 23.7267 69.1196 22.7 69.453 21.94C69.7863 21.18 70.333 20.6333 71.093 20.3C71.8663 19.9533 72.8796 19.78 74.133 19.78ZM85.7636 20.06V30H82.1436V20.06H85.7636ZM88.9236 20.06V22.78H78.9636V20.06H88.9236ZM95.2119 19.78C96.9985 19.78 98.2719 20.0733 99.0319 20.66C99.7919 21.2467 100.179 22.1133 100.192 23.26C100.205 24.18 99.9452 24.8533 99.4119 25.28C98.8919 25.7067 97.9785 25.92 96.6719 25.92H91.2119V24.1H95.6519C96.0919 24.1 96.3719 24.0333 96.4919 23.9C96.6252 23.7667 96.6919 23.5267 96.6919 23.18C96.6919 22.7933 96.5852 22.5333 96.3719 22.4C96.1719 22.2667 95.8252 22.2 95.3319 22.2C94.8652 22.1867 94.5052 22.24 94.2519 22.36C94.0119 22.48 93.8452 22.72 93.7519 23.08C93.6585 23.44 93.6119 23.98 93.6119 24.7C93.6119 25.42 93.6652 25.9733 93.7719 26.36C93.8919 26.7467 94.0985 27.02 94.3919 27.18C94.6985 27.34 95.1252 27.42 95.6719 27.42C96.1119 27.42 96.6785 27.4067 97.3719 27.38C98.0785 27.34 98.8185 27.28 99.5919 27.2L99.9119 29.4C99.4852 29.6133 99.0119 29.78 98.4919 29.9C97.9852 30.02 97.4585 30.1067 96.9119 30.16C96.3652 30.2133 95.8185 30.24 95.2719 30.24C93.9519 30.24 92.8852 30.0533 92.0719 29.68C91.2719 29.3067 90.6919 28.74 90.3319 27.98C89.9852 27.2067 89.8119 26.24 89.8119 25.08C89.8119 23.7733 89.9919 22.7333 90.3519 21.96C90.7119 21.1867 91.2852 20.6333 92.0719 20.3C92.8719 19.9533 93.9185 19.78 95.2119 19.78ZM108.794 19.82C110.074 19.82 110.981 20.28 111.514 21.2C112.061 22.12 112.334 23.4333 112.334 25.14C112.334 26.4867 112.194 27.5333 111.914 28.28C111.634 29.0133 111.214 29.5333 110.654 29.84C110.107 30.1333 109.421 30.28 108.594 30.28C107.861 30.28 107.167 30.1733 106.514 29.96C105.861 29.7333 105.314 29.3667 104.874 28.86L105.114 27.36C105.461 27.4667 105.781 27.5733 106.074 27.68C106.381 27.7733 106.754 27.82 107.194 27.82C107.541 27.82 107.814 27.76 108.014 27.64C108.214 27.5067 108.361 27.2533 108.454 26.88C108.547 26.4933 108.594 25.92 108.594 25.16C108.594 24.4 108.547 23.8267 108.454 23.44C108.374 23.0533 108.234 22.8 108.034 22.68C107.847 22.56 107.594 22.5 107.274 22.5C106.887 22.5 106.554 22.56 106.274 22.68C106.007 22.7867 105.714 22.94 105.394 23.14L104.914 21.66C105.127 21.3133 105.427 21 105.814 20.72C106.214 20.44 106.674 20.22 107.194 20.06C107.714 19.9 108.247 19.82 108.794 19.82ZM104.734 20.06L105.094 21.74L105.454 22.04V28.58L105.354 28.82C105.394 29.2333 105.421 29.6733 105.434 30.14C105.461 30.62 105.467 31.08 105.454 31.52V33.7H101.834V20.06H104.734ZM128.317 20.06C128.064 20.8867 127.85 21.5733 127.677 22.12C127.517 22.6667 127.364 23.1067 127.217 23.44C127.07 23.76 126.904 24.0067 126.717 24.18C126.53 24.34 126.29 24.4667 125.997 24.56C125.704 24.64 125.33 24.7133 124.877 24.78V24.88C125.344 24.9467 125.73 25.02 126.037 25.1C126.344 25.18 126.604 25.3067 126.817 25.48C127.03 25.6533 127.224 25.9133 127.397 26.26C127.57 26.6067 127.75 27.0867 127.937 27.7C128.137 28.3 128.377 29.0667 128.657 30H124.877C124.65 29.2 124.457 28.5533 124.297 28.06C124.15 27.5533 124.017 27.16 123.897 26.88C123.777 26.6 123.65 26.4067 123.517 26.3C123.384 26.18 123.224 26.1067 123.037 26.08C122.864 26.0533 122.637 26.04 122.357 26.04L122.297 23.68C122.657 23.68 122.944 23.6467 123.157 23.58C123.37 23.5 123.55 23.3467 123.697 23.12C123.844 22.88 123.984 22.52 124.117 22.04C124.264 21.56 124.444 20.9 124.657 20.06H128.317ZM121.977 20.06V22.4C121.977 22.7867 121.93 23.1933 121.837 23.62C121.757 24.0467 121.63 24.44 121.457 24.8C121.604 25.12 121.724 25.4733 121.817 25.86C121.924 26.2333 121.977 26.5667 121.977 26.86V30H118.357V20.06H121.977ZM123.157 23.68V26.04H121.117V23.68H123.157ZM134.821 19.78C136.127 19.78 137.174 19.9533 137.961 20.3C138.747 20.6333 139.314 21.1867 139.661 21.96C140.007 22.72 140.181 23.7467 140.181 25.04C140.181 26.32 140.007 27.34 139.661 28.1C139.314 28.8467 138.747 29.3933 137.961 29.74C137.174 30.0733 136.127 30.24 134.821 30.24C133.527 30.24 132.487 30.0733 131.701 29.74C130.914 29.3933 130.341 28.8467 129.981 28.1C129.634 27.34 129.461 26.32 129.461 25.04C129.461 23.7467 129.634 22.72 129.981 21.96C130.341 21.1867 130.914 20.6333 131.701 20.3C132.487 19.9533 133.527 19.78 134.821 19.78ZM134.821 22.32C134.421 22.32 134.107 22.3933 133.881 22.54C133.654 22.6867 133.494 22.9533 133.401 23.34C133.307 23.7267 133.261 24.2933 133.261 25.04C133.261 25.7733 133.307 26.3333 133.401 26.72C133.494 27.1067 133.654 27.3733 133.881 27.52C134.107 27.6533 134.421 27.72 134.821 27.72C135.234 27.72 135.554 27.6533 135.781 27.52C136.007 27.3733 136.161 27.1067 136.241 26.72C136.334 26.3333 136.381 25.7733 136.381 25.04C136.381 24.2933 136.334 23.7267 136.241 23.34C136.161 22.9533 136.007 22.6867 135.781 22.54C135.554 22.3933 135.234 22.32 134.821 22.32ZM151.972 20.04V30H148.432V20.04H151.972ZM145.432 20.04V30H141.892V20.04H145.432ZM148.632 20.04L148.612 22.46H145.312V20.04H148.632ZM157.819 20.06V30H154.199V20.06H157.819ZM156.799 15.58C157.505 15.58 157.859 15.94 157.859 16.66V17.7C157.859 18.42 157.505 18.78 156.799 18.78H155.239C154.532 18.78 154.179 18.42 154.179 17.7V16.66C154.179 15.94 154.532 15.58 155.239 15.58H156.799ZM170.177 19.78C171.123 19.78 171.923 19.86 172.577 20.02C173.243 20.1667 173.777 20.4333 174.177 20.82C174.59 21.2067 174.89 21.7467 175.077 22.44C175.263 23.12 175.357 23.9933 175.357 25.06C175.357 26.4333 175.183 27.4933 174.837 28.24C174.503 28.9867 173.957 29.5067 173.197 29.8C172.45 30.08 171.443 30.22 170.177 30.22C168.977 30.22 168.017 30.08 167.297 29.8C166.577 29.5067 166.063 28.9867 165.757 28.24C165.45 27.4933 165.297 26.4333 165.297 25.06C165.297 23.9933 165.383 23.12 165.557 22.44C165.73 21.7467 166.003 21.2067 166.377 20.82C166.763 20.4333 167.27 20.1667 167.897 20.02C168.523 19.86 169.283 19.78 170.177 19.78ZM163.677 20.06V30H160.057V20.06H163.677ZM166.557 23.72V26.12H163.517V23.72H166.557ZM170.117 22.52C169.703 22.52 169.39 22.5867 169.177 22.72C168.963 22.84 168.817 23.08 168.737 23.44C168.67 23.7867 168.637 24.3067 168.637 25C168.637 25.6933 168.67 26.22 168.737 26.58C168.817 26.9267 168.963 27.1667 169.177 27.3C169.39 27.42 169.703 27.48 170.117 27.48C170.53 27.48 170.843 27.42 171.057 27.3C171.27 27.1667 171.417 26.9267 171.497 26.58C171.577 26.22 171.617 25.6933 171.617 25C171.617 24.3067 171.577 23.7867 171.497 23.44C171.417 23.08 171.27 22.84 171.057 22.72C170.843 22.5867 170.53 22.52 170.117 22.52ZM182.267 19.94C183.387 19.94 184.267 20.02 184.907 20.18C185.561 20.3267 186.027 20.5933 186.307 20.98C186.601 21.3533 186.747 21.8867 186.747 22.58C186.747 23.2867 186.581 23.8267 186.247 24.2C185.914 24.56 185.354 24.7733 184.567 24.84V24.92C185.514 24.9867 186.174 25.2467 186.547 25.7C186.934 26.14 187.127 26.7533 187.127 27.54C187.127 28.22 186.974 28.7533 186.667 29.14C186.374 29.5267 185.914 29.8 185.287 29.96C184.661 30.1067 183.847 30.18 182.847 30.18C181.994 30.18 181.241 30.1733 180.587 30.16C179.934 30.16 179.327 30.1467 178.767 30.12C178.221 30.1067 177.661 30.0867 177.087 30.06L177.367 27.8C177.674 27.8133 178.261 27.8267 179.127 27.84C180.007 27.84 181.041 27.84 182.227 27.84C182.561 27.84 182.821 27.8133 183.007 27.76C183.194 27.7067 183.327 27.6067 183.407 27.46C183.487 27.3 183.527 27.08 183.527 26.8C183.527 26.4 183.427 26.1333 183.227 26C183.041 25.8667 182.694 25.8 182.187 25.8H177.347V23.96H182.187C182.494 23.96 182.734 23.94 182.907 23.9C183.081 23.8467 183.201 23.7533 183.267 23.62C183.347 23.4867 183.387 23.3067 183.387 23.08C183.387 22.8533 183.347 22.68 183.267 22.56C183.187 22.44 183.054 22.3533 182.867 22.3C182.681 22.2467 182.421 22.22 182.087 22.22C181.367 22.22 180.734 22.22 180.187 22.22C179.641 22.2067 179.141 22.2067 178.687 22.22C178.234 22.22 177.794 22.2333 177.367 22.26L177.087 20.06C177.607 20.02 178.114 19.9933 178.607 19.98C179.114 19.9667 179.661 19.96 180.247 19.96C180.834 19.9467 181.507 19.94 182.267 19.94ZM180.507 20.06V30.06H177.087V20.06H180.507ZM194.287 19.78C195.18 19.78 195.934 19.9 196.547 20.14C197.16 20.38 197.627 20.78 197.947 21.34C198.267 21.9 198.427 22.6733 198.427 23.66V30H195.527L195.027 27.86L194.787 27.5V23.64C194.774 23.2267 194.667 22.9333 194.467 22.76C194.28 22.5733 193.934 22.48 193.427 22.48C192.907 22.48 192.267 22.4933 191.507 22.52C190.747 22.5333 189.954 22.5667 189.127 22.62L188.807 20.28C189.3 20.1867 189.88 20.1067 190.547 20.04C191.214 19.96 191.874 19.9 192.527 19.86C193.194 19.8067 193.78 19.78 194.287 19.78ZM196.987 23.9L196.967 25.74H192.707C192.414 25.7533 192.194 25.8333 192.047 25.98C191.9 26.1133 191.827 26.3 191.827 26.54V26.92C191.827 27.1733 191.907 27.3733 192.067 27.52C192.24 27.6533 192.494 27.72 192.827 27.72C193.16 27.72 193.514 27.6467 193.887 27.5C194.26 27.3533 194.627 27.1533 194.987 26.9C195.347 26.6467 195.66 26.3733 195.927 26.08V27.36C195.82 27.5733 195.654 27.84 195.427 28.16C195.214 28.48 194.934 28.8067 194.587 29.14C194.24 29.46 193.82 29.7267 193.327 29.94C192.834 30.1533 192.26 30.26 191.607 30.26C191.007 30.26 190.454 30.1533 189.947 29.94C189.44 29.7267 189.034 29.4133 188.727 29C188.434 28.5867 188.287 28.0667 188.287 27.44V26.44C188.287 25.64 188.567 25.02 189.127 24.58C189.7 24.1267 190.474 23.9 191.447 23.9H196.987ZM204.047 20.06V30H200.447V20.06H204.047ZM207.287 23.58V25.96H203.907V23.58H207.287ZM210.667 20.06V30H207.107V20.06H210.667ZM216.41 20.06V30H212.81V20.06H216.41ZM219.65 23.58V25.96H216.27V23.58H219.65ZM223.03 20.06V30H219.47V20.06H223.03ZM229.553 19.82C230.46 19.82 231.207 19.8267 231.793 19.84C232.393 19.84 232.907 19.8533 233.333 19.88C233.76 19.8933 234.18 19.9267 234.593 19.98L234.333 22.44C234.227 22.4 233.76 22.38 232.933 22.38C232.107 22.3667 231.007 22.36 229.633 22.36C229.18 22.36 228.88 22.4267 228.733 22.56C228.587 22.6933 228.513 22.9333 228.513 23.28C228.513 23.7867 228.587 24.1267 228.733 24.3C228.88 24.4733 229.18 24.56 229.633 24.56H234.353L234.413 26.7C234.16 26.7133 233.86 26.7267 233.513 26.74C233.18 26.7533 232.72 26.76 232.133 26.76C231.547 26.76 230.76 26.76 229.773 26.76C229.453 26.76 229.22 26.8 229.073 26.88C228.94 26.96 228.853 27.1133 228.813 27.34L228.193 30H224.473L225.253 26.86C225.347 26.5667 225.507 26.3467 225.733 26.2C225.96 26.0533 226.207 25.9533 226.473 25.9C226.74 25.8467 226.973 25.8133 227.173 25.8V25.7C226.6 25.5933 226.153 25.4067 225.833 25.14C225.527 24.86 225.307 24.5333 225.173 24.16C225.04 23.7867 224.973 23.4067 224.973 23.02C224.973 22.3933 225.04 21.8733 225.173 21.46C225.307 21.0467 225.54 20.72 225.873 20.48C226.22 20.24 226.687 20.0733 227.273 19.98C227.873 19.8733 228.633 19.82 229.553 19.82ZM234.593 19.98V30H231.053V19.98H234.593Z" fill="#7A5300"/>
</svg>
